<mxfile host="Electron" agent="Mozilla/5.0 (Windows NT 10.0; Win64; x64) AppleWebKit/537.36 (KHTML, like Gecko) draw.io/22.1.2 Chrome/114.0.5735.289 Electron/25.9.4 Safari/537.36" modified="2025-03-31T23:02:25.314Z" version="22.1.2" etag="LyUZNoWVywN0qsatilkC" type="device">
  <diagram name="Sayfa -1" id="YTx_wSfUVnj3xswCg4oF">
    <mxGraphModel dx="2885" dy="2357" grid="1" gridSize="10" guides="1" tooltips="1" connect="1" arrows="1" fold="1" page="1" pageScale="1" pageWidth="827" pageHeight="1169" math="0" shadow="0">
      <root>
        <mxCell id="0" />
        <mxCell id="1" parent="0" />
        <mxCell id="PpMCIyciMcYEDyqqtjCE-1" style="edgeStyle=none;shape=connector;rounded=0;orthogonalLoop=1;jettySize=auto;html=1;strokeColor=default;align=center;verticalAlign=middle;fontFamily=Helvetica;fontSize=11;fontColor=default;labelBackgroundColor=default;startFill=0;endArrow=none;startArrow=none;jumpStyle=none;" parent="1" source="PpMCIyciMcYEDyqqtjCE-145" target="PpMCIyciMcYEDyqqtjCE-65" edge="1">
          <mxGeometry relative="1" as="geometry">
            <mxPoint x="380.09799685465805" y="30.08536268985904" as="sourcePoint" />
            <Array as="points" />
          </mxGeometry>
        </mxCell>
        <mxCell id="PpMCIyciMcYEDyqqtjCE-2" style="edgeStyle=none;shape=connector;rounded=0;orthogonalLoop=1;jettySize=auto;html=1;strokeColor=default;align=center;verticalAlign=middle;fontFamily=Helvetica;fontSize=11;fontColor=default;labelBackgroundColor=default;startFill=0;endArrow=none;startArrow=none;" parent="1" source="PpMCIyciMcYEDyqqtjCE-145" target="PpMCIyciMcYEDyqqtjCE-66" edge="1">
          <mxGeometry relative="1" as="geometry">
            <mxPoint x="390.21303214163936" y="35.62957428668847" as="sourcePoint" />
          </mxGeometry>
        </mxCell>
        <mxCell id="PpMCIyciMcYEDyqqtjCE-3" style="edgeStyle=none;shape=connector;rounded=0;orthogonalLoop=1;jettySize=auto;html=1;strokeColor=default;align=center;verticalAlign=middle;fontFamily=Helvetica;fontSize=11;fontColor=default;labelBackgroundColor=default;startFill=0;endArrow=none;startArrow=none;" parent="1" source="PpMCIyciMcYEDyqqtjCE-145" target="PpMCIyciMcYEDyqqtjCE-67" edge="1">
          <mxGeometry relative="1" as="geometry">
            <mxPoint x="392.9493698574788" y="40.9731264331615" as="sourcePoint" />
          </mxGeometry>
        </mxCell>
        <mxCell id="PpMCIyciMcYEDyqqtjCE-142" style="edgeStyle=none;shape=link;rounded=0;orthogonalLoop=1;jettySize=auto;html=1;strokeColor=default;align=center;verticalAlign=middle;fontFamily=Helvetica;fontSize=11;fontColor=default;labelBackgroundColor=default;startFill=0;endArrow=none;" parent="1" source="PpMCIyciMcYEDyqqtjCE-4" target="PpMCIyciMcYEDyqqtjCE-145" edge="1">
          <mxGeometry relative="1" as="geometry">
            <mxPoint x="369.657963949086" y="57.11686421791842" as="targetPoint" />
          </mxGeometry>
        </mxCell>
        <mxCell id="PpMCIyciMcYEDyqqtjCE-122" value="creates" style="rhombus;whiteSpace=wrap;html=1;fontFamily=Helvetica;fontSize=11;fontColor=default;labelBackgroundColor=default;" parent="1" vertex="1">
          <mxGeometry x="470" y="405" width="100" height="50" as="geometry" />
        </mxCell>
        <mxCell id="PpMCIyciMcYEDyqqtjCE-145" value="d" style="ellipse;whiteSpace=wrap;html=1;align=center;fontFamily=Helvetica;fontSize=11;fontColor=default;labelBackgroundColor=default;" parent="1" vertex="1">
          <mxGeometry x="265" y="10" width="30" height="30" as="geometry" />
        </mxCell>
        <mxCell id="PpMCIyciMcYEDyqqtjCE-178" value="Admin" style="whiteSpace=wrap;html=1;align=center;" parent="1" vertex="1">
          <mxGeometry x="120" y="-64.99999999999997" width="100" height="40" as="geometry" />
        </mxCell>
        <mxCell id="PpMCIyciMcYEDyqqtjCE-209" style="edgeStyle=none;shape=connector;rounded=0;orthogonalLoop=1;jettySize=auto;html=1;strokeColor=default;align=center;verticalAlign=middle;fontFamily=Helvetica;fontSize=11;fontColor=default;labelBackgroundColor=default;startFill=0;endArrow=none;startArrow=none;jumpStyle=none;" parent="1" source="PpMCIyciMcYEDyqqtjCE-145" target="PpMCIyciMcYEDyqqtjCE-178" edge="1">
          <mxGeometry relative="1" as="geometry">
            <mxPoint x="410" y="80" as="sourcePoint" />
            <mxPoint x="402" y="-30" as="targetPoint" />
            <Array as="points" />
          </mxGeometry>
        </mxCell>
        <mxCell id="PpMCIyciMcYEDyqqtjCE-11" style="edgeStyle=none;shape=connector;rounded=0;orthogonalLoop=1;jettySize=auto;html=1;strokeColor=default;align=center;verticalAlign=middle;fontFamily=Helvetica;fontSize=11;fontColor=default;labelBackgroundColor=default;startFill=0;endArrow=none;" parent="1" source="PpMCIyciMcYEDyqqtjCE-12" target="PpMCIyciMcYEDyqqtjCE-65" edge="1">
          <mxGeometry relative="1" as="geometry" />
        </mxCell>
        <mxCell id="PpMCIyciMcYEDyqqtjCE-12" value="departmentName" style="ellipse;whiteSpace=wrap;html=1;align=center;fontStyle=0" parent="1" vertex="1">
          <mxGeometry x="230.5" y="-180" width="100" height="40" as="geometry" />
        </mxCell>
        <mxCell id="PpMCIyciMcYEDyqqtjCE-13" style="edgeStyle=none;shape=connector;rounded=0;orthogonalLoop=1;jettySize=auto;html=1;strokeColor=default;align=center;verticalAlign=middle;fontFamily=Helvetica;fontSize=11;fontColor=default;labelBackgroundColor=default;startFill=0;endArrow=none;exitX=0.5;exitY=1;exitDx=0;exitDy=0;" parent="1" source="NVN6tV_nm1JGV-YXpk5U-1" target="PpMCIyciMcYEDyqqtjCE-65" edge="1">
          <mxGeometry relative="1" as="geometry">
            <mxPoint x="191.9933724405189" y="-142.03874584024334" as="sourcePoint" />
          </mxGeometry>
        </mxCell>
        <mxCell id="PpMCIyciMcYEDyqqtjCE-17" style="edgeStyle=none;shape=connector;rounded=0;orthogonalLoop=1;jettySize=auto;html=1;strokeColor=default;align=center;verticalAlign=middle;fontFamily=Helvetica;fontSize=11;fontColor=default;labelBackgroundColor=default;startFill=0;endArrow=none;" parent="1" source="PpMCIyciMcYEDyqqtjCE-18" target="PpMCIyciMcYEDyqqtjCE-65" edge="1">
          <mxGeometry relative="1" as="geometry" />
        </mxCell>
        <mxCell id="PpMCIyciMcYEDyqqtjCE-18" value="facultyName" style="ellipse;whiteSpace=wrap;html=1;align=center;fontStyle=0" parent="1" vertex="1">
          <mxGeometry x="340" y="-180" width="100" height="40" as="geometry" />
        </mxCell>
        <mxCell id="PpMCIyciMcYEDyqqtjCE-65" value="Student" style="whiteSpace=wrap;html=1;align=center;" parent="1" vertex="1">
          <mxGeometry x="230.5" y="-90" width="100" height="40" as="geometry" />
        </mxCell>
        <mxCell id="PpMCIyciMcYEDyqqtjCE-66" value="Faculty" style="whiteSpace=wrap;html=1;align=center;" parent="1" vertex="1">
          <mxGeometry x="340" y="-60" width="100" height="40" as="geometry" />
        </mxCell>
        <mxCell id="PpMCIyciMcYEDyqqtjCE-68" style="edgeStyle=none;shape=connector;rounded=0;orthogonalLoop=1;jettySize=auto;html=1;strokeColor=default;align=center;verticalAlign=middle;fontFamily=Helvetica;fontSize=11;fontColor=default;labelBackgroundColor=default;startFill=0;endArrow=none;" parent="1" source="PpMCIyciMcYEDyqqtjCE-69" target="PpMCIyciMcYEDyqqtjCE-66" edge="1">
          <mxGeometry relative="1" as="geometry" />
        </mxCell>
        <mxCell id="PpMCIyciMcYEDyqqtjCE-69" value="departmentName" style="ellipse;whiteSpace=wrap;html=1;align=center;fontStyle=0" parent="1" vertex="1">
          <mxGeometry x="340" y="-110" width="100" height="40" as="geometry" />
        </mxCell>
        <mxCell id="PpMCIyciMcYEDyqqtjCE-70" style="edgeStyle=none;shape=connector;rounded=0;orthogonalLoop=1;jettySize=auto;html=1;strokeColor=default;align=center;verticalAlign=middle;fontFamily=Helvetica;fontSize=11;fontColor=default;labelBackgroundColor=default;startFill=0;endArrow=none;" parent="1" source="PpMCIyciMcYEDyqqtjCE-71" target="PpMCIyciMcYEDyqqtjCE-66" edge="1">
          <mxGeometry relative="1" as="geometry" />
        </mxCell>
        <mxCell id="PpMCIyciMcYEDyqqtjCE-71" value="facultyName" style="ellipse;whiteSpace=wrap;html=1;align=center;fontStyle=0" parent="1" vertex="1">
          <mxGeometry x="450" y="-60" width="100" height="40" as="geometry" />
        </mxCell>
        <mxCell id="PpMCIyciMcYEDyqqtjCE-67" value="Staff" style="whiteSpace=wrap;html=1;align=center;" parent="1" vertex="1">
          <mxGeometry x="385" y="5" width="100" height="40" as="geometry" />
        </mxCell>
        <mxCell id="PpMCIyciMcYEDyqqtjCE-74" style="edgeStyle=none;shape=connector;rounded=0;orthogonalLoop=1;jettySize=auto;html=1;strokeColor=default;align=center;verticalAlign=middle;fontFamily=Helvetica;fontSize=11;fontColor=default;labelBackgroundColor=default;startFill=0;endArrow=none;exitX=0.048;exitY=0.309;exitDx=0;exitDy=0;exitPerimeter=0;" parent="1" source="NVN6tV_nm1JGV-YXpk5U-19" target="PpMCIyciMcYEDyqqtjCE-67" edge="1">
          <mxGeometry relative="1" as="geometry">
            <mxPoint x="514.1722704976373" y="56.04937966279658" as="sourcePoint" />
          </mxGeometry>
        </mxCell>
        <mxCell id="PpMCIyciMcYEDyqqtjCE-76" style="edgeStyle=none;shape=connector;rounded=0;orthogonalLoop=1;jettySize=auto;html=1;strokeColor=default;align=center;verticalAlign=middle;fontFamily=Helvetica;fontSize=11;fontColor=default;labelBackgroundColor=default;startFill=0;endArrow=none;exitX=0;exitY=0.5;exitDx=0;exitDy=0;" parent="1" source="NVN6tV_nm1JGV-YXpk5U-21" target="PpMCIyciMcYEDyqqtjCE-67" edge="1">
          <mxGeometry relative="1" as="geometry">
            <mxPoint x="510.0000000000023" y="25" as="sourcePoint" />
          </mxGeometry>
        </mxCell>
        <mxCell id="PpMCIyciMcYEDyqqtjCE-4" value="User" style="whiteSpace=wrap;html=1;align=center;" parent="1" vertex="1">
          <mxGeometry x="230" y="160" width="100" height="40" as="geometry" />
        </mxCell>
        <mxCell id="PpMCIyciMcYEDyqqtjCE-5" style="edgeStyle=none;rounded=0;orthogonalLoop=1;jettySize=auto;html=1;endArrow=none;startFill=0;entryX=0;entryY=0;entryDx=0;entryDy=0;" parent="1" source="PpMCIyciMcYEDyqqtjCE-6" target="PpMCIyciMcYEDyqqtjCE-4" edge="1">
          <mxGeometry relative="1" as="geometry" />
        </mxCell>
        <mxCell id="PpMCIyciMcYEDyqqtjCE-6" value="tcn" style="ellipse;whiteSpace=wrap;html=1;align=center;fontStyle=4" parent="1" vertex="1">
          <mxGeometry x="114" y="120" width="100" height="40" as="geometry" />
        </mxCell>
        <mxCell id="PpMCIyciMcYEDyqqtjCE-7" style="edgeStyle=none;rounded=0;orthogonalLoop=1;jettySize=auto;html=1;endArrow=none;startFill=0;" parent="1" source="PpMCIyciMcYEDyqqtjCE-8" target="PpMCIyciMcYEDyqqtjCE-4" edge="1">
          <mxGeometry relative="1" as="geometry" />
        </mxCell>
        <mxCell id="PpMCIyciMcYEDyqqtjCE-8" value="password" style="ellipse;whiteSpace=wrap;html=1;align=center;fontStyle=0" parent="1" vertex="1">
          <mxGeometry x="380" y="135" width="100" height="40" as="geometry" />
        </mxCell>
        <mxCell id="PpMCIyciMcYEDyqqtjCE-9" style="edgeStyle=none;shape=connector;rounded=0;orthogonalLoop=1;jettySize=auto;html=1;strokeColor=default;align=center;verticalAlign=middle;fontFamily=Helvetica;fontSize=11;fontColor=default;labelBackgroundColor=default;startFill=0;endArrow=none;" parent="1" source="PpMCIyciMcYEDyqqtjCE-10" target="PpMCIyciMcYEDyqqtjCE-4" edge="1">
          <mxGeometry relative="1" as="geometry" />
        </mxCell>
        <mxCell id="PpMCIyciMcYEDyqqtjCE-10" value="fullName" style="ellipse;whiteSpace=wrap;html=1;align=center;fontStyle=0" parent="1" vertex="1">
          <mxGeometry x="170" y="220" width="100" height="40" as="geometry" />
        </mxCell>
        <mxCell id="PpMCIyciMcYEDyqqtjCE-15" style="edgeStyle=none;shape=connector;rounded=0;orthogonalLoop=1;jettySize=auto;html=1;strokeColor=default;align=center;verticalAlign=middle;fontFamily=Helvetica;fontSize=11;fontColor=default;labelBackgroundColor=default;startFill=0;endArrow=none;" parent="1" source="PpMCIyciMcYEDyqqtjCE-16" target="PpMCIyciMcYEDyqqtjCE-4" edge="1">
          <mxGeometry relative="1" as="geometry" />
        </mxCell>
        <mxCell id="PpMCIyciMcYEDyqqtjCE-16" value="userId" style="ellipse;whiteSpace=wrap;html=1;align=center;fontStyle=4" parent="1" vertex="1">
          <mxGeometry x="40" y="200" width="100" height="40" as="geometry" />
        </mxCell>
        <mxCell id="PpMCIyciMcYEDyqqtjCE-19" style="edgeStyle=none;shape=connector;rounded=0;orthogonalLoop=1;jettySize=auto;html=1;strokeColor=default;align=center;verticalAlign=middle;fontFamily=Helvetica;fontSize=11;fontColor=default;labelBackgroundColor=default;startFill=0;endArrow=none;" parent="1" source="PpMCIyciMcYEDyqqtjCE-20" target="PpMCIyciMcYEDyqqtjCE-4" edge="1">
          <mxGeometry relative="1" as="geometry" />
        </mxCell>
        <mxCell id="PpMCIyciMcYEDyqqtjCE-20" value="phoneNumber" style="ellipse;whiteSpace=wrap;html=1;align=center;fontStyle=4" parent="1" vertex="1">
          <mxGeometry x="330" y="95" width="100" height="40" as="geometry" />
        </mxCell>
        <mxCell id="PpMCIyciMcYEDyqqtjCE-21" style="edgeStyle=none;shape=connector;rounded=0;orthogonalLoop=1;jettySize=auto;html=1;strokeColor=default;align=center;verticalAlign=middle;fontFamily=Helvetica;fontSize=11;fontColor=default;labelBackgroundColor=default;startFill=0;endArrow=none;" parent="1" source="PpMCIyciMcYEDyqqtjCE-22" target="PpMCIyciMcYEDyqqtjCE-4" edge="1">
          <mxGeometry relative="1" as="geometry" />
        </mxCell>
        <mxCell id="PpMCIyciMcYEDyqqtjCE-22" value="address" style="ellipse;whiteSpace=wrap;html=1;align=center;fontStyle=0" parent="1" vertex="1">
          <mxGeometry x="285" y="55" width="100" height="40" as="geometry" />
        </mxCell>
        <mxCell id="PpMCIyciMcYEDyqqtjCE-59" style="edgeStyle=none;shape=connector;rounded=0;orthogonalLoop=1;jettySize=auto;html=1;strokeColor=default;align=center;verticalAlign=middle;fontFamily=Helvetica;fontSize=11;fontColor=default;labelBackgroundColor=default;startFill=0;endArrow=none;" parent="1" source="PpMCIyciMcYEDyqqtjCE-60" target="PpMCIyciMcYEDyqqtjCE-10" edge="1">
          <mxGeometry relative="1" as="geometry" />
        </mxCell>
        <mxCell id="PpMCIyciMcYEDyqqtjCE-60" value="name" style="ellipse;whiteSpace=wrap;html=1;align=center;fontStyle=0" parent="1" vertex="1">
          <mxGeometry x="40" y="250" width="100" height="40" as="geometry" />
        </mxCell>
        <mxCell id="PpMCIyciMcYEDyqqtjCE-61" style="edgeStyle=none;shape=connector;rounded=0;orthogonalLoop=1;jettySize=auto;html=1;strokeColor=default;align=center;verticalAlign=middle;fontFamily=Helvetica;fontSize=11;fontColor=default;labelBackgroundColor=default;startFill=0;endArrow=none;" parent="1" source="PpMCIyciMcYEDyqqtjCE-62" target="PpMCIyciMcYEDyqqtjCE-10" edge="1">
          <mxGeometry relative="1" as="geometry" />
        </mxCell>
        <mxCell id="PpMCIyciMcYEDyqqtjCE-62" value="surname" style="ellipse;whiteSpace=wrap;html=1;align=center;fontStyle=0" parent="1" vertex="1">
          <mxGeometry x="120" y="280" width="100" height="40" as="geometry" />
        </mxCell>
        <mxCell id="PpMCIyciMcYEDyqqtjCE-63" style="edgeStyle=none;shape=connector;rounded=0;orthogonalLoop=1;jettySize=auto;html=1;strokeColor=default;align=center;verticalAlign=middle;fontFamily=Helvetica;fontSize=11;fontColor=default;labelBackgroundColor=default;startFill=0;endArrow=none;exitX=0.5;exitY=0;exitDx=0;exitDy=0;" parent="1" source="NVN6tV_nm1JGV-YXpk5U-12" target="PpMCIyciMcYEDyqqtjCE-4" edge="1">
          <mxGeometry relative="1" as="geometry">
            <mxPoint x="262.7956198992947" y="300.0312864336097" as="sourcePoint" />
            <Array as="points">
              <mxPoint x="280" y="250" />
            </Array>
          </mxGeometry>
        </mxCell>
        <mxCell id="PpMCIyciMcYEDyqqtjCE-83" style="edgeStyle=none;shape=connector;rounded=0;orthogonalLoop=1;jettySize=auto;html=1;strokeColor=default;align=center;verticalAlign=middle;fontFamily=Helvetica;fontSize=11;fontColor=default;labelBackgroundColor=default;startFill=0;endArrow=none;" parent="1" source="PpMCIyciMcYEDyqqtjCE-84" target="es9ZJtGhFtUr3s1p5VEL-22" edge="1">
          <mxGeometry relative="1" as="geometry" />
        </mxCell>
        <mxCell id="PpMCIyciMcYEDyqqtjCE-84" value="location" style="ellipse;whiteSpace=wrap;html=1;align=center;fontStyle=0" parent="1" vertex="1">
          <mxGeometry x="600" y="685" width="100" height="40" as="geometry" />
        </mxCell>
        <mxCell id="PpMCIyciMcYEDyqqtjCE-85" style="edgeStyle=none;shape=connector;rounded=0;orthogonalLoop=1;jettySize=auto;html=1;strokeColor=default;align=center;verticalAlign=middle;fontFamily=Helvetica;fontSize=11;fontColor=default;labelBackgroundColor=default;startFill=0;endArrow=none;exitX=0.5;exitY=0;exitDx=0;exitDy=0;" parent="1" source="NVN6tV_nm1JGV-YXpk5U-28" target="es9ZJtGhFtUr3s1p5VEL-22" edge="1">
          <mxGeometry relative="1" as="geometry">
            <mxPoint x="1018.0127388860005" y="1000.0636944300009" as="sourcePoint" />
          </mxGeometry>
        </mxCell>
        <mxCell id="PpMCIyciMcYEDyqqtjCE-90" style="edgeStyle=none;shape=connector;rounded=0;orthogonalLoop=1;jettySize=auto;html=1;strokeColor=default;align=center;verticalAlign=middle;fontFamily=Helvetica;fontSize=11;fontColor=default;labelBackgroundColor=default;startFill=0;endArrow=none;" parent="1" source="PpMCIyciMcYEDyqqtjCE-91" target="es9ZJtGhFtUr3s1p5VEL-22" edge="1">
          <mxGeometry relative="1" as="geometry" />
        </mxCell>
        <mxCell id="PpMCIyciMcYEDyqqtjCE-91" value="lostDate" style="ellipse;whiteSpace=wrap;html=1;align=center;fontStyle=0" parent="1" vertex="1">
          <mxGeometry x="560" y="780" width="100" height="40" as="geometry" />
        </mxCell>
        <mxCell id="PpMCIyciMcYEDyqqtjCE-92" style="edgeStyle=none;shape=connector;rounded=0;orthogonalLoop=1;jettySize=auto;html=1;strokeColor=default;align=center;verticalAlign=middle;fontFamily=Helvetica;fontSize=11;fontColor=default;labelBackgroundColor=default;startFill=0;endArrow=none;" parent="1" source="PpMCIyciMcYEDyqqtjCE-93" target="es9ZJtGhFtUr3s1p5VEL-22" edge="1">
          <mxGeometry relative="1" as="geometry" />
        </mxCell>
        <mxCell id="PpMCIyciMcYEDyqqtjCE-93" value="note" style="ellipse;whiteSpace=wrap;html=1;align=center;fontStyle=0" parent="1" vertex="1">
          <mxGeometry x="610" y="735" width="100" height="40" as="geometry" />
        </mxCell>
        <mxCell id="PpMCIyciMcYEDyqqtjCE-94" style="edgeStyle=none;shape=connector;rounded=0;orthogonalLoop=1;jettySize=auto;html=1;strokeColor=default;align=center;verticalAlign=middle;fontFamily=Helvetica;fontSize=11;fontColor=default;labelBackgroundColor=default;startFill=0;endArrow=none;exitX=0;exitY=1;exitDx=0;exitDy=0;entryX=0.895;entryY=0.023;entryDx=0;entryDy=0;entryPerimeter=0;" parent="1" source="NVN6tV_nm1JGV-YXpk5U-26" target="es9ZJtGhFtUr3s1p5VEL-22" edge="1">
          <mxGeometry relative="1" as="geometry">
            <mxPoint x="1079.863069286674" y="778.3063006484781" as="sourcePoint" />
          </mxGeometry>
        </mxCell>
        <mxCell id="PpMCIyciMcYEDyqqtjCE-24" style="edgeStyle=none;shape=connector;rounded=0;orthogonalLoop=1;jettySize=auto;html=1;strokeColor=default;align=center;verticalAlign=middle;fontFamily=Helvetica;fontSize=11;fontColor=default;labelBackgroundColor=default;startFill=0;endArrow=none;" parent="1" source="PpMCIyciMcYEDyqqtjCE-25" target="PpMCIyciMcYEDyqqtjCE-26" edge="1">
          <mxGeometry relative="1" as="geometry" />
        </mxCell>
        <mxCell id="PpMCIyciMcYEDyqqtjCE-25" value="categoryId" style="ellipse;whiteSpace=wrap;html=1;align=center;fontStyle=4" parent="1" vertex="1">
          <mxGeometry x="80" y="890" width="100" height="40" as="geometry" />
        </mxCell>
        <mxCell id="PpMCIyciMcYEDyqqtjCE-26" value="Category" style="whiteSpace=wrap;html=1;align=center;" parent="1" vertex="1">
          <mxGeometry x="140" y="790" width="100" height="40" as="geometry" />
        </mxCell>
        <mxCell id="PpMCIyciMcYEDyqqtjCE-27" style="edgeStyle=none;shape=connector;rounded=0;orthogonalLoop=1;jettySize=auto;html=1;strokeColor=default;align=center;verticalAlign=middle;fontFamily=Helvetica;fontSize=11;fontColor=default;labelBackgroundColor=default;startFill=0;endArrow=none;" parent="1" source="PpMCIyciMcYEDyqqtjCE-28" target="PpMCIyciMcYEDyqqtjCE-26" edge="1">
          <mxGeometry relative="1" as="geometry" />
        </mxCell>
        <mxCell id="PpMCIyciMcYEDyqqtjCE-28" value="categoryName" style="ellipse;whiteSpace=wrap;html=1;align=center;fontStyle=0" parent="1" vertex="1">
          <mxGeometry x="185" y="890" width="100" height="40" as="geometry" />
        </mxCell>
        <mxCell id="PpMCIyciMcYEDyqqtjCE-98" style="edgeStyle=none;shape=connector;rounded=0;orthogonalLoop=1;jettySize=auto;html=1;strokeColor=default;align=center;verticalAlign=middle;fontFamily=Helvetica;fontSize=11;fontColor=default;labelBackgroundColor=default;startFill=0;endArrow=none;" parent="1" source="PpMCIyciMcYEDyqqtjCE-99" target="PpMCIyciMcYEDyqqtjCE-100" edge="1">
          <mxGeometry relative="1" as="geometry" />
        </mxCell>
        <mxCell id="PpMCIyciMcYEDyqqtjCE-99" value="colorId" style="ellipse;whiteSpace=wrap;html=1;align=center;fontStyle=4" parent="1" vertex="1">
          <mxGeometry x="90" y="740" width="100" height="40" as="geometry" />
        </mxCell>
        <mxCell id="PpMCIyciMcYEDyqqtjCE-100" value="Color" style="whiteSpace=wrap;html=1;align=center;" parent="1" vertex="1">
          <mxGeometry x="160" y="670" width="100" height="40" as="geometry" />
        </mxCell>
        <mxCell id="PpMCIyciMcYEDyqqtjCE-101" style="edgeStyle=none;shape=connector;rounded=0;orthogonalLoop=1;jettySize=auto;html=1;strokeColor=default;align=center;verticalAlign=middle;fontFamily=Helvetica;fontSize=11;fontColor=default;labelBackgroundColor=default;startFill=0;endArrow=none;" parent="1" source="PpMCIyciMcYEDyqqtjCE-102" target="PpMCIyciMcYEDyqqtjCE-100" edge="1">
          <mxGeometry relative="1" as="geometry" />
        </mxCell>
        <mxCell id="PpMCIyciMcYEDyqqtjCE-102" value="colorName" style="ellipse;whiteSpace=wrap;html=1;align=center;fontStyle=0" parent="1" vertex="1">
          <mxGeometry x="210" y="740" width="100" height="40" as="geometry" />
        </mxCell>
        <mxCell id="PpMCIyciMcYEDyqqtjCE-171" style="edgeStyle=none;shape=connector;rounded=0;orthogonalLoop=1;jettySize=auto;html=1;strokeColor=default;align=center;verticalAlign=middle;fontFamily=Helvetica;fontSize=11;fontColor=default;labelBackgroundColor=default;startFill=0;endArrow=none;" parent="1" source="PpMCIyciMcYEDyqqtjCE-153" target="PpMCIyciMcYEDyqqtjCE-157" edge="1">
          <mxGeometry relative="1" as="geometry" />
        </mxCell>
        <mxCell id="PpMCIyciMcYEDyqqtjCE-153" value="dateOfDelivery" style="ellipse;whiteSpace=wrap;html=1;align=center;fontStyle=0;dashed=1;" parent="1" vertex="1">
          <mxGeometry x="70" y="530" width="100" height="40" as="geometry" />
        </mxCell>
        <mxCell id="PpMCIyciMcYEDyqqtjCE-172" style="edgeStyle=none;shape=connector;rounded=0;orthogonalLoop=1;jettySize=auto;html=1;strokeColor=default;align=center;verticalAlign=middle;fontFamily=Helvetica;fontSize=11;fontColor=default;labelBackgroundColor=default;startFill=0;endArrow=none;" parent="1" source="PpMCIyciMcYEDyqqtjCE-154" target="PpMCIyciMcYEDyqqtjCE-157" edge="1">
          <mxGeometry relative="1" as="geometry" />
        </mxCell>
        <mxCell id="PpMCIyciMcYEDyqqtjCE-154" value="finderApproval" style="ellipse;whiteSpace=wrap;html=1;align=center;fontStyle=0" parent="1" vertex="1">
          <mxGeometry x="80" y="605" width="100" height="40" as="geometry" />
        </mxCell>
        <mxCell id="PpMCIyciMcYEDyqqtjCE-173" style="edgeStyle=none;shape=connector;rounded=0;orthogonalLoop=1;jettySize=auto;html=1;strokeColor=default;align=center;verticalAlign=middle;fontFamily=Helvetica;fontSize=11;fontColor=default;labelBackgroundColor=default;startFill=0;endArrow=none;" parent="1" source="PpMCIyciMcYEDyqqtjCE-155" target="PpMCIyciMcYEDyqqtjCE-157" edge="1">
          <mxGeometry relative="1" as="geometry" />
        </mxCell>
        <mxCell id="PpMCIyciMcYEDyqqtjCE-155" value="receiverApproval" style="ellipse;whiteSpace=wrap;html=1;align=center;fontStyle=0" parent="1" vertex="1">
          <mxGeometry x="255" y="605" width="100" height="40" as="geometry" />
        </mxCell>
        <mxCell id="PpMCIyciMcYEDyqqtjCE-170" style="edgeStyle=none;shape=connector;rounded=0;orthogonalLoop=1;jettySize=auto;html=1;strokeColor=default;align=center;verticalAlign=middle;fontFamily=Helvetica;fontSize=11;fontColor=default;labelBackgroundColor=default;startFill=0;endArrow=none;entryX=0.351;entryY=1.008;entryDx=0;entryDy=0;entryPerimeter=0;" parent="1" source="PpMCIyciMcYEDyqqtjCE-157" target="es9ZJtGhFtUr3s1p5VEL-24" edge="1">
          <mxGeometry relative="1" as="geometry" />
        </mxCell>
        <mxCell id="PpMCIyciMcYEDyqqtjCE-157" value="deliveryStatus" style="ellipse;whiteSpace=wrap;html=1;align=center;fontStyle=0;dashed=1;" parent="1" vertex="1">
          <mxGeometry x="165" y="565" width="100" height="40" as="geometry" />
        </mxCell>
        <mxCell id="PpMCIyciMcYEDyqqtjCE-32" style="edgeStyle=none;shape=connector;rounded=0;orthogonalLoop=1;jettySize=auto;html=1;strokeColor=default;align=center;verticalAlign=middle;fontFamily=Helvetica;fontSize=11;fontColor=default;labelBackgroundColor=default;startFill=0;endArrow=none;exitX=0.5;exitY=1;exitDx=0;exitDy=0;" parent="1" source="PpMCIyciMcYEDyqqtjCE-33" target="es9ZJtGhFtUr3s1p5VEL-21" edge="1">
          <mxGeometry relative="1" as="geometry" />
        </mxCell>
        <mxCell id="PpMCIyciMcYEDyqqtjCE-33" value="its location" style="ellipse;whiteSpace=wrap;html=1;align=center;fontStyle=0" parent="1" vertex="1">
          <mxGeometry x="-190" y="280" width="100" height="40" as="geometry" />
        </mxCell>
        <mxCell id="PpMCIyciMcYEDyqqtjCE-34" style="edgeStyle=none;shape=connector;rounded=0;orthogonalLoop=1;jettySize=auto;html=1;strokeColor=default;align=center;verticalAlign=middle;fontFamily=Helvetica;fontSize=11;fontColor=default;labelBackgroundColor=default;startFill=0;endArrow=none;exitX=1;exitY=0.5;exitDx=0;exitDy=0;" parent="1" source="NVN6tV_nm1JGV-YXpk5U-13" target="es9ZJtGhFtUr3s1p5VEL-21" edge="1">
          <mxGeometry relative="1" as="geometry">
            <mxPoint x="-626.0475813059891" y="170.46534832563816" as="sourcePoint" />
          </mxGeometry>
        </mxCell>
        <mxCell id="PpMCIyciMcYEDyqqtjCE-43" style="edgeStyle=none;shape=connector;rounded=0;orthogonalLoop=1;jettySize=auto;html=1;strokeColor=default;align=center;verticalAlign=middle;fontFamily=Helvetica;fontSize=11;fontColor=default;labelBackgroundColor=default;startFill=0;endArrow=none;" parent="1" source="PpMCIyciMcYEDyqqtjCE-44" target="es9ZJtGhFtUr3s1p5VEL-21" edge="1">
          <mxGeometry relative="1" as="geometry" />
        </mxCell>
        <mxCell id="PpMCIyciMcYEDyqqtjCE-44" value="discoveryDate" style="ellipse;whiteSpace=wrap;html=1;align=center;fontStyle=0" parent="1" vertex="1">
          <mxGeometry x="-130" y="410" width="100" height="40" as="geometry" />
        </mxCell>
        <mxCell id="PpMCIyciMcYEDyqqtjCE-47" style="edgeStyle=none;shape=connector;rounded=0;orthogonalLoop=1;jettySize=auto;html=1;strokeColor=default;align=center;verticalAlign=middle;fontFamily=Helvetica;fontSize=11;fontColor=default;labelBackgroundColor=default;startFill=0;endArrow=none;" parent="1" source="PpMCIyciMcYEDyqqtjCE-48" target="es9ZJtGhFtUr3s1p5VEL-21" edge="1">
          <mxGeometry relative="1" as="geometry" />
        </mxCell>
        <mxCell id="PpMCIyciMcYEDyqqtjCE-48" value="note" style="ellipse;whiteSpace=wrap;html=1;align=center;fontStyle=0" parent="1" vertex="1">
          <mxGeometry x="-280" y="350" width="100" height="40" as="geometry" />
        </mxCell>
        <mxCell id="PpMCIyciMcYEDyqqtjCE-49" style="edgeStyle=none;shape=connector;rounded=0;orthogonalLoop=1;jettySize=auto;html=1;strokeColor=default;align=center;verticalAlign=middle;fontFamily=Helvetica;fontSize=11;fontColor=default;labelBackgroundColor=default;startFill=0;endArrow=none;" parent="1" source="PpMCIyciMcYEDyqqtjCE-50" target="es9ZJtGhFtUr3s1p5VEL-21" edge="1">
          <mxGeometry relative="1" as="geometry" />
        </mxCell>
        <mxCell id="PpMCIyciMcYEDyqqtjCE-50" value="condition" style="ellipse;whiteSpace=wrap;html=1;align=center;fontStyle=0" parent="1" vertex="1">
          <mxGeometry x="-290" y="307.5" width="100" height="40" as="geometry" />
        </mxCell>
        <mxCell id="PpMCIyciMcYEDyqqtjCE-57" style="edgeStyle=none;shape=connector;rounded=0;orthogonalLoop=1;jettySize=auto;html=1;strokeColor=default;align=center;verticalAlign=middle;fontFamily=Helvetica;fontSize=11;fontColor=default;labelBackgroundColor=default;startFill=0;endArrow=none;exitX=0.5;exitY=1;exitDx=0;exitDy=0;" parent="1" source="NVN6tV_nm1JGV-YXpk5U-23" target="es9ZJtGhFtUr3s1p5VEL-21" edge="1">
          <mxGeometry relative="1" as="geometry">
            <mxPoint x="-394.430168446597" y="97.4501203189975" as="sourcePoint" />
          </mxGeometry>
        </mxCell>
        <mxCell id="es9ZJtGhFtUr3s1p5VEL-21" value="Found Ad" style="shape=ext;margin=3;double=1;whiteSpace=wrap;html=1;align=center;" parent="1" vertex="1">
          <mxGeometry x="-10" y="360" width="100" height="40" as="geometry" />
        </mxCell>
        <mxCell id="es9ZJtGhFtUr3s1p5VEL-22" value="Lost Ad" style="shape=ext;margin=3;double=1;whiteSpace=wrap;html=1;align=center;" parent="1" vertex="1">
          <mxGeometry x="480" y="690" width="100" height="40" as="geometry" />
        </mxCell>
        <mxCell id="es9ZJtGhFtUr3s1p5VEL-23" value="Notification" style="shape=ext;margin=3;double=1;whiteSpace=wrap;html=1;align=center;" parent="1" vertex="1">
          <mxGeometry x="470" y="300" width="100" height="40" as="geometry" />
        </mxCell>
        <mxCell id="es9ZJtGhFtUr3s1p5VEL-24" value="Lost and Found" style="shape=ext;margin=3;double=1;whiteSpace=wrap;html=1;align=center;" parent="1" vertex="1">
          <mxGeometry x="180" y="480" width="100" height="40" as="geometry" />
        </mxCell>
        <mxCell id="es9ZJtGhFtUr3s1p5VEL-51" value="" style="edgeStyle=none;shape=connector;rounded=0;orthogonalLoop=1;jettySize=auto;html=1;strokeColor=default;align=center;verticalAlign=middle;fontFamily=Helvetica;fontSize=11;fontColor=default;labelBackgroundColor=default;startFill=0;endArrow=ERmandOne;endFill=0;endSize=15;startSize=15;entryX=0.209;entryY=1.02;entryDx=0;entryDy=0;entryPerimeter=0;" parent="1" source="es9ZJtGhFtUr3s1p5VEL-78" target="es9ZJtGhFtUr3s1p5VEL-21" edge="1">
          <mxGeometry relative="1" as="geometry">
            <mxPoint x="-692.0808761583826" y="724.9494524010111" as="sourcePoint" />
            <mxPoint x="-721.25" y="440" as="targetPoint" />
            <Array as="points">
              <mxPoint x="10" y="500" />
            </Array>
          </mxGeometry>
        </mxCell>
        <mxCell id="es9ZJtGhFtUr3s1p5VEL-52" value="" style="edgeStyle=none;shape=connector;rounded=0;orthogonalLoop=1;jettySize=auto;html=1;strokeColor=default;align=center;verticalAlign=middle;fontFamily=Helvetica;fontSize=11;fontColor=default;labelBackgroundColor=default;startFill=0;endArrow=ERmandOne;endFill=0;endSize=15;startSize=15;entryX=0.888;entryY=1.008;entryDx=0;entryDy=0;entryPerimeter=0;" parent="1" source="es9ZJtGhFtUr3s1p5VEL-79" target="es9ZJtGhFtUr3s1p5VEL-21" edge="1">
          <mxGeometry relative="1" as="geometry">
            <mxPoint x="-564.8514851485152" y="658.2178217821784" as="sourcePoint" />
            <mxPoint x="-438" y="160" as="targetPoint" />
            <Array as="points">
              <mxPoint x="80" y="490" />
            </Array>
          </mxGeometry>
        </mxCell>
        <mxCell id="es9ZJtGhFtUr3s1p5VEL-53" value="" style="edgeStyle=none;shape=connector;rounded=0;orthogonalLoop=1;jettySize=auto;html=1;strokeColor=default;align=center;verticalAlign=middle;fontFamily=Helvetica;fontSize=11;fontColor=default;labelBackgroundColor=default;startFill=0;endArrow=ERmandOne;endFill=0;endSize=15;startSize=15;" parent="1" source="es9ZJtGhFtUr3s1p5VEL-78" target="PpMCIyciMcYEDyqqtjCE-26" edge="1">
          <mxGeometry relative="1" as="geometry">
            <mxPoint x="-674.5612134344528" y="754.1007583965334" as="sourcePoint" />
            <mxPoint x="-555" y="668" as="targetPoint" />
            <Array as="points">
              <mxPoint x="40" y="810" />
            </Array>
          </mxGeometry>
        </mxCell>
        <mxCell id="es9ZJtGhFtUr3s1p5VEL-54" value="" style="edgeStyle=none;shape=connector;rounded=0;orthogonalLoop=1;jettySize=auto;html=1;strokeColor=default;align=center;verticalAlign=middle;fontFamily=Helvetica;fontSize=11;fontColor=default;labelBackgroundColor=default;startFill=0;endArrow=ERmandOne;endFill=0;endSize=15;startSize=15;" parent="1" source="es9ZJtGhFtUr3s1p5VEL-79" target="PpMCIyciMcYEDyqqtjCE-100" edge="1">
          <mxGeometry relative="1" as="geometry">
            <mxPoint x="-541.5370018975336" y="687.2106261859585" as="sourcePoint" />
            <mxPoint x="141" y="1052" as="targetPoint" />
            <Array as="points">
              <mxPoint x="70" y="690" />
            </Array>
          </mxGeometry>
        </mxCell>
        <mxCell id="es9ZJtGhFtUr3s1p5VEL-55" value="" style="edgeStyle=none;shape=connector;rounded=0;orthogonalLoop=1;jettySize=auto;html=1;strokeColor=default;align=center;verticalAlign=middle;fontFamily=Helvetica;fontSize=11;fontColor=default;labelBackgroundColor=default;startFill=0;endArrow=ERmandOne;endFill=0;endSize=15;startSize=15;" parent="1" source="es9ZJtGhFtUr3s1p5VEL-81" target="PpMCIyciMcYEDyqqtjCE-100" edge="1">
          <mxGeometry relative="1" as="geometry">
            <mxPoint x="520" y="870" as="sourcePoint" />
            <mxPoint x="-532" y="697" as="targetPoint" />
            <Array as="points">
              <mxPoint x="320" y="690" />
            </Array>
          </mxGeometry>
        </mxCell>
        <mxCell id="es9ZJtGhFtUr3s1p5VEL-56" value="" style="edgeStyle=none;shape=connector;rounded=0;orthogonalLoop=1;jettySize=auto;html=1;strokeColor=default;align=center;verticalAlign=middle;fontFamily=Helvetica;fontSize=11;fontColor=default;labelBackgroundColor=default;startFill=0;endArrow=ERmandOne;endFill=0;endSize=15;startSize=15;" parent="1" source="es9ZJtGhFtUr3s1p5VEL-80" target="PpMCIyciMcYEDyqqtjCE-26" edge="1">
          <mxGeometry relative="1" as="geometry">
            <mxPoint x="539.4210009813542" y="990.8881256133463" as="sourcePoint" />
            <mxPoint x="240" y="880" as="targetPoint" />
            <Array as="points">
              <mxPoint x="280" y="810" />
            </Array>
          </mxGeometry>
        </mxCell>
        <mxCell id="es9ZJtGhFtUr3s1p5VEL-57" value="" style="edgeStyle=none;shape=connector;rounded=0;orthogonalLoop=1;jettySize=auto;html=1;strokeColor=default;align=center;verticalAlign=middle;fontFamily=Helvetica;fontSize=11;fontColor=default;labelBackgroundColor=default;startFill=0;endArrow=ERmandOne;endFill=0;endSize=15;startSize=15;entryX=0.098;entryY=0.985;entryDx=0;entryDy=0;entryPerimeter=0;" parent="1" source="es9ZJtGhFtUr3s1p5VEL-80" target="es9ZJtGhFtUr3s1p5VEL-22" edge="1">
          <mxGeometry relative="1" as="geometry">
            <mxPoint x="597.0967741935483" y="976.9354838709678" as="sourcePoint" />
            <mxPoint x="549" y="1001" as="targetPoint" />
            <Array as="points">
              <mxPoint x="490" y="770" />
            </Array>
          </mxGeometry>
        </mxCell>
        <mxCell id="es9ZJtGhFtUr3s1p5VEL-58" value="" style="edgeStyle=none;shape=connector;rounded=0;orthogonalLoop=1;jettySize=auto;html=1;strokeColor=default;align=center;verticalAlign=middle;fontFamily=Helvetica;fontSize=11;fontColor=default;labelBackgroundColor=default;startFill=0;endArrow=ERmandOne;endFill=0;endSize=15;startSize=15;" parent="1" source="es9ZJtGhFtUr3s1p5VEL-81" target="es9ZJtGhFtUr3s1p5VEL-22" edge="1">
          <mxGeometry relative="1" as="geometry">
            <mxPoint x="598.5650224215242" y="869.1031390134531" as="sourcePoint" />
            <mxPoint x="950" y="885" as="targetPoint" />
          </mxGeometry>
        </mxCell>
        <mxCell id="es9ZJtGhFtUr3s1p5VEL-59" value="" style="edgeStyle=none;shape=connector;rounded=0;orthogonalLoop=1;jettySize=auto;html=1;strokeColor=default;align=center;verticalAlign=middle;fontFamily=Helvetica;fontSize=11;fontColor=default;labelBackgroundColor=default;startFill=0;endArrow=ERmandOne;endFill=0;endSize=15;startSize=15;entryX=0.25;entryY=0;entryDx=0;entryDy=0;" parent="1" source="es9ZJtGhFtUr3s1p5VEL-75" target="PpMCIyciMcYEDyqqtjCE-4" edge="1">
          <mxGeometry relative="1" as="geometry">
            <mxPoint x="117.5" y="-30" as="sourcePoint" />
            <mxPoint x="160" y="30" as="targetPoint" />
            <Array as="points">
              <mxPoint x="255" y="80" />
            </Array>
          </mxGeometry>
        </mxCell>
        <mxCell id="es9ZJtGhFtUr3s1p5VEL-61" value="" style="edgeStyle=none;shape=connector;rounded=0;orthogonalLoop=1;jettySize=auto;html=1;strokeColor=default;align=center;verticalAlign=middle;fontFamily=Helvetica;fontSize=11;fontColor=default;labelBackgroundColor=default;startFill=0;endArrow=ERzeroToMany;endFill=0;endSize=15;startSize=15;" parent="1" source="es9ZJtGhFtUr3s1p5VEL-75" target="es9ZJtGhFtUr3s1p5VEL-18" edge="1">
          <mxGeometry relative="1" as="geometry">
            <mxPoint x="-100" y="-180" as="sourcePoint" />
            <mxPoint x="-57.5" y="-120" as="targetPoint" />
            <Array as="points">
              <mxPoint x="-10" y="120" />
              <mxPoint x="-80" y="120" />
            </Array>
          </mxGeometry>
        </mxCell>
        <mxCell id="es9ZJtGhFtUr3s1p5VEL-62" value="" style="edgeStyle=none;shape=connector;rounded=0;orthogonalLoop=1;jettySize=auto;html=1;strokeColor=default;align=center;verticalAlign=middle;fontFamily=Helvetica;fontSize=11;fontColor=default;labelBackgroundColor=default;startFill=0;endArrow=ERoneToMany;endFill=0;endSize=15;startSize=15;exitX=0.678;exitY=0.805;exitDx=0;exitDy=0;exitPerimeter=0;" parent="1" source="es9ZJtGhFtUr3s1p5VEL-77" target="PpMCIyciMcYEDyqqtjCE-178" edge="1">
          <mxGeometry relative="1" as="geometry">
            <mxPoint x="98.75" y="-210" as="sourcePoint" />
            <mxPoint x="141.25" y="-150" as="targetPoint" />
            <Array as="points">
              <mxPoint x="90" y="-45" />
            </Array>
          </mxGeometry>
        </mxCell>
        <mxCell id="es9ZJtGhFtUr3s1p5VEL-67" value="" style="edgeStyle=none;shape=connector;rounded=0;orthogonalLoop=1;jettySize=auto;html=1;strokeColor=default;align=center;verticalAlign=middle;fontFamily=Helvetica;fontSize=11;fontColor=default;labelBackgroundColor=default;startFill=0;endArrow=ERoneToMany;endFill=0;endSize=15;startSize=15;" parent="1" source="PpMCIyciMcYEDyqqtjCE-122" target="es9ZJtGhFtUr3s1p5VEL-23" edge="1">
          <mxGeometry relative="1" as="geometry">
            <mxPoint x="820" y="570" as="sourcePoint" />
            <mxPoint x="862.5" y="630" as="targetPoint" />
          </mxGeometry>
        </mxCell>
        <mxCell id="es9ZJtGhFtUr3s1p5VEL-69" value="" style="edgeStyle=none;shape=connector;rounded=0;orthogonalLoop=1;jettySize=auto;html=1;strokeColor=default;align=center;verticalAlign=middle;fontFamily=Helvetica;fontSize=11;fontColor=default;labelBackgroundColor=default;startFill=0;endArrow=ERmandOne;endFill=0;endSize=15;startSize=15;entryX=0.798;entryY=-0.006;entryDx=0;entryDy=0;entryPerimeter=0;" parent="1" source="PpMCIyciMcYEDyqqtjCE-122" target="es9ZJtGhFtUr3s1p5VEL-22" edge="1">
          <mxGeometry relative="1" as="geometry">
            <mxPoint x="787.5" y="580" as="sourcePoint" />
            <mxPoint x="830" y="640" as="targetPoint" />
            <Array as="points">
              <mxPoint x="560" y="570" />
            </Array>
          </mxGeometry>
        </mxCell>
        <mxCell id="es9ZJtGhFtUr3s1p5VEL-70" value="" style="edgeStyle=none;shape=connector;rounded=0;orthogonalLoop=1;jettySize=auto;html=1;strokeColor=default;align=center;verticalAlign=middle;fontFamily=Helvetica;fontSize=11;fontColor=default;labelBackgroundColor=default;startFill=0;endArrow=ERzeroToMany;endFill=0;endSize=15;startSize=15;entryX=0.587;entryY=-0.006;entryDx=0;entryDy=0;entryPerimeter=0;" parent="1" source="es9ZJtGhFtUr3s1p5VEL-86" target="es9ZJtGhFtUr3s1p5VEL-22" edge="1">
          <mxGeometry relative="1" as="geometry">
            <mxPoint x="596.4989939637826" y="509.688128772636" as="sourcePoint" />
            <mxPoint x="870" y="550" as="targetPoint" />
            <Array as="points">
              <mxPoint x="539" y="600" />
            </Array>
          </mxGeometry>
        </mxCell>
        <mxCell id="es9ZJtGhFtUr3s1p5VEL-71" value="" style="edgeStyle=none;shape=connector;rounded=0;orthogonalLoop=1;jettySize=auto;html=1;strokeColor=default;align=center;verticalAlign=middle;fontFamily=Helvetica;fontSize=11;fontColor=default;labelBackgroundColor=default;startFill=0;endArrow=ERmandOne;endFill=0;endSize=15;startSize=15;entryX=0.846;entryY=0.997;entryDx=0;entryDy=0;entryPerimeter=0;" parent="1" source="es9ZJtGhFtUr3s1p5VEL-86" target="PpMCIyciMcYEDyqqtjCE-4" edge="1">
          <mxGeometry relative="1" as="geometry">
            <mxPoint x="565.0746268656717" y="479.3283582089548" as="sourcePoint" />
            <mxPoint x="315" y="250" as="targetPoint" />
            <Array as="points">
              <mxPoint x="315" y="350" />
            </Array>
          </mxGeometry>
        </mxCell>
        <mxCell id="es9ZJtGhFtUr3s1p5VEL-74" value="creates" style="shape=rhombus;double=1;perimeter=rhombusPerimeter;whiteSpace=wrap;html=1;align=center;" parent="1" vertex="1">
          <mxGeometry x="-70" y="155" width="100" height="50" as="geometry" />
        </mxCell>
        <mxCell id="es9ZJtGhFtUr3s1p5VEL-75" value="&lt;span style=&quot;font-size: 11px;&quot;&gt;creates&lt;/span&gt;" style="shape=rhombus;double=1;perimeter=rhombusPerimeter;whiteSpace=wrap;html=1;align=center;" parent="1" vertex="1">
          <mxGeometry x="40" y="55" width="100" height="50" as="geometry" />
        </mxCell>
        <mxCell id="es9ZJtGhFtUr3s1p5VEL-77" value="&lt;span style=&quot;font-size: 11px;&quot;&gt;tracks&lt;/span&gt;" style="shape=rhombus;double=1;perimeter=rhombusPerimeter;whiteSpace=wrap;html=1;align=center;" parent="1" vertex="1">
          <mxGeometry x="20" y="-30" width="100" height="50" as="geometry" />
        </mxCell>
        <mxCell id="es9ZJtGhFtUr3s1p5VEL-78" value="includes" style="shape=rhombus;double=1;perimeter=rhombusPerimeter;whiteSpace=wrap;html=1;align=center;" parent="1" vertex="1">
          <mxGeometry x="-210" y="580" width="100" height="50" as="geometry" />
        </mxCell>
        <mxCell id="es9ZJtGhFtUr3s1p5VEL-79" value="includes" style="shape=rhombus;double=1;perimeter=rhombusPerimeter;whiteSpace=wrap;html=1;align=center;" parent="1" vertex="1">
          <mxGeometry x="-100" y="580" width="100" height="50" as="geometry" />
        </mxCell>
        <mxCell id="es9ZJtGhFtUr3s1p5VEL-80" value="includes" style="shape=rhombus;double=1;perimeter=rhombusPerimeter;whiteSpace=wrap;html=1;align=center;" parent="1" vertex="1">
          <mxGeometry x="314" y="815" width="100" height="50" as="geometry" />
        </mxCell>
        <mxCell id="es9ZJtGhFtUr3s1p5VEL-81" value="includes" style="shape=rhombus;double=1;perimeter=rhombusPerimeter;whiteSpace=wrap;html=1;align=center;" parent="1" vertex="1">
          <mxGeometry x="314" y="685" width="100" height="50" as="geometry" />
        </mxCell>
        <mxCell id="es9ZJtGhFtUr3s1p5VEL-82" value="&lt;span style=&quot;font-size: 11px;&quot;&gt;creates&lt;/span&gt;" style="shape=rhombus;double=1;perimeter=rhombusPerimeter;whiteSpace=wrap;html=1;align=center;" parent="1" vertex="1">
          <mxGeometry x="160" y="370" width="140" height="60" as="geometry" />
        </mxCell>
        <mxCell id="es9ZJtGhFtUr3s1p5VEL-83" value="" style="edgeStyle=none;shape=connector;rounded=0;orthogonalLoop=1;jettySize=auto;html=1;strokeColor=default;align=center;verticalAlign=middle;fontFamily=Helvetica;fontSize=11;fontColor=default;labelBackgroundColor=default;startFill=0;endArrow=ERmandOne;endFill=0;endSize=15;startSize=15;entryX=1;entryY=0.5;entryDx=0;entryDy=0;" parent="1" source="es9ZJtGhFtUr3s1p5VEL-82" target="es9ZJtGhFtUr3s1p5VEL-21" edge="1">
          <mxGeometry relative="1" as="geometry">
            <mxPoint x="-22.5" y="510.08" as="sourcePoint" />
            <mxPoint x="-400" y="180" as="targetPoint" />
            <Array as="points">
              <mxPoint x="130" y="380" />
            </Array>
          </mxGeometry>
        </mxCell>
        <mxCell id="es9ZJtGhFtUr3s1p5VEL-84" value="" style="edgeStyle=none;shape=connector;rounded=0;orthogonalLoop=1;jettySize=auto;html=1;strokeColor=default;align=center;verticalAlign=middle;fontFamily=Helvetica;fontSize=11;fontColor=default;labelBackgroundColor=default;startFill=0;endArrow=ERmandOne;endFill=0;endSize=15;startSize=15;entryX=0.206;entryY=-0.015;entryDx=0;entryDy=0;entryPerimeter=0;" parent="1" source="es9ZJtGhFtUr3s1p5VEL-82" target="es9ZJtGhFtUr3s1p5VEL-22" edge="1">
          <mxGeometry relative="1" as="geometry">
            <mxPoint x="420" y="580" as="sourcePoint" />
            <mxPoint x="462.5" y="640" as="targetPoint" />
            <Array as="points">
              <mxPoint x="500" y="610" />
            </Array>
          </mxGeometry>
        </mxCell>
        <mxCell id="es9ZJtGhFtUr3s1p5VEL-85" value="" style="edgeStyle=none;shape=connector;rounded=0;orthogonalLoop=1;jettySize=auto;html=1;strokeColor=default;align=center;verticalAlign=middle;fontFamily=Helvetica;fontSize=11;fontColor=default;labelBackgroundColor=default;startFill=0;endArrow=ERzeroToOne;endFill=0;endSize=15;startSize=15;" parent="1" source="es9ZJtGhFtUr3s1p5VEL-82" target="es9ZJtGhFtUr3s1p5VEL-24" edge="1">
          <mxGeometry relative="1" as="geometry">
            <mxPoint x="-122.5" y="510" as="sourcePoint" />
            <mxPoint x="-80" y="570" as="targetPoint" />
          </mxGeometry>
        </mxCell>
        <mxCell id="es9ZJtGhFtUr3s1p5VEL-86" value="creates" style="shape=rhombus;double=1;perimeter=rhombusPerimeter;whiteSpace=wrap;html=1;align=center;" parent="1" vertex="1">
          <mxGeometry x="380" y="475" width="116" height="45" as="geometry" />
        </mxCell>
        <mxCell id="es9ZJtGhFtUr3s1p5VEL-87" value="" style="edgeStyle=none;shape=connector;rounded=0;orthogonalLoop=1;jettySize=auto;html=1;strokeColor=default;align=center;verticalAlign=middle;fontFamily=Helvetica;fontSize=11;fontColor=default;labelBackgroundColor=default;startFill=0;endArrow=ERzeroToMany;endFill=0;endSize=15;startSize=15;" parent="1" source="es9ZJtGhFtUr3s1p5VEL-74" target="es9ZJtGhFtUr3s1p5VEL-21" edge="1">
          <mxGeometry relative="1" as="geometry">
            <mxPoint x="-270" y="180" as="sourcePoint" />
            <mxPoint x="-227.5" y="240" as="targetPoint" />
            <Array as="points">
              <mxPoint x="40" y="290" />
            </Array>
          </mxGeometry>
        </mxCell>
        <mxCell id="es9ZJtGhFtUr3s1p5VEL-88" value="" style="edgeStyle=none;shape=connector;rounded=0;orthogonalLoop=1;jettySize=auto;html=1;strokeColor=default;align=center;verticalAlign=middle;fontFamily=Helvetica;fontSize=11;fontColor=default;labelBackgroundColor=default;startFill=0;endArrow=ERmandOne;endFill=0;endSize=15;startSize=15;" parent="1" source="es9ZJtGhFtUr3s1p5VEL-74" target="PpMCIyciMcYEDyqqtjCE-4" edge="1">
          <mxGeometry relative="1" as="geometry">
            <mxPoint x="-38.5" y="180" as="sourcePoint" />
            <mxPoint x="4" y="240" as="targetPoint" />
          </mxGeometry>
        </mxCell>
        <mxCell id="es9ZJtGhFtUr3s1p5VEL-92" value="" style="edgeStyle=none;shape=connector;rounded=0;orthogonalLoop=1;jettySize=auto;html=1;strokeColor=default;align=center;verticalAlign=middle;fontFamily=Helvetica;fontSize=11;fontColor=default;labelBackgroundColor=default;startFill=0;endArrow=ERzeroToMany;endFill=0;endSize=15;startSize=15;entryX=1;entryY=0.5;entryDx=0;entryDy=0;" parent="1" source="es9ZJtGhFtUr3s1p5VEL-77" target="es9ZJtGhFtUr3s1p5VEL-18" edge="1">
          <mxGeometry relative="1" as="geometry">
            <mxPoint x="-85" y="-255" as="sourcePoint" />
            <mxPoint x="-42.5" y="-195" as="targetPoint" />
            <Array as="points">
              <mxPoint x="20" y="55" />
            </Array>
          </mxGeometry>
        </mxCell>
        <mxCell id="NVN6tV_nm1JGV-YXpk5U-1" value="studentNo" style="ellipse;whiteSpace=wrap;html=1;align=center;fontStyle=0" vertex="1" parent="1">
          <mxGeometry x="120" y="-180" width="100" height="40" as="geometry" />
        </mxCell>
        <mxCell id="NVN6tV_nm1JGV-YXpk5U-6" value="" style="verticalLabelPosition=bottom;verticalAlign=top;html=1;shape=mxgraph.basic.arc;startAngle=0.4968173254495136;endAngle=0;rotation=30;" vertex="1" parent="1">
          <mxGeometry x="225" y="-10" width="30" height="20" as="geometry" />
        </mxCell>
        <mxCell id="NVN6tV_nm1JGV-YXpk5U-9" value="" style="verticalLabelPosition=bottom;verticalAlign=top;html=1;shape=mxgraph.basic.arc;startAngle=0.4968173254495136;endAngle=0;rotation=90;" vertex="1" parent="1">
          <mxGeometry x="265" y="-30" width="30" height="20" as="geometry" />
        </mxCell>
        <mxCell id="NVN6tV_nm1JGV-YXpk5U-10" value="" style="verticalLabelPosition=bottom;verticalAlign=top;html=1;shape=mxgraph.basic.arc;startAngle=0.4968173254495136;endAngle=0;rotation=-215;" vertex="1" parent="1">
          <mxGeometry x="310" y="-10" width="30" height="20" as="geometry" />
        </mxCell>
        <mxCell id="NVN6tV_nm1JGV-YXpk5U-11" value="" style="verticalLabelPosition=bottom;verticalAlign=top;html=1;shape=mxgraph.basic.arc;startAngle=0.4968173254495136;endAngle=0;rotation=-180;" vertex="1" parent="1">
          <mxGeometry x="340" y="15" width="30" height="20" as="geometry" />
        </mxCell>
        <mxCell id="NVN6tV_nm1JGV-YXpk5U-12" value="userPhoto" style="ellipse;whiteSpace=wrap;html=1;align=center;fontStyle=0" vertex="1" parent="1">
          <mxGeometry x="200" y="310" width="100" height="40" as="geometry" />
        </mxCell>
        <mxCell id="NVN6tV_nm1JGV-YXpk5U-13" value="image" style="ellipse;whiteSpace=wrap;html=1;align=center;fontStyle=0" vertex="1" parent="1">
          <mxGeometry x="-210" y="380" width="100" height="40" as="geometry" />
        </mxCell>
        <mxCell id="NVN6tV_nm1JGV-YXpk5U-14" value="lostAndFoundNo" style="ellipse;whiteSpace=wrap;html=1;align=center;fontStyle=0" vertex="1" parent="1">
          <mxGeometry x="255" y="540" width="100" height="40" as="geometry" />
        </mxCell>
        <mxCell id="NVN6tV_nm1JGV-YXpk5U-15" value="" style="endArrow=none;dashed=1;html=1;rounded=0;entryX=0.953;entryY=0.714;entryDx=0;entryDy=0;exitX=0.063;exitY=0.728;exitDx=0;exitDy=0;exitPerimeter=0;entryPerimeter=0;" edge="1" parent="1" source="NVN6tV_nm1JGV-YXpk5U-14" target="NVN6tV_nm1JGV-YXpk5U-14">
          <mxGeometry width="50" height="50" relative="1" as="geometry">
            <mxPoint x="-417.9000000000001" y="609" as="sourcePoint" />
            <mxPoint x="-321.79999999999995" y="608.44" as="targetPoint" />
          </mxGeometry>
        </mxCell>
        <mxCell id="NVN6tV_nm1JGV-YXpk5U-18" style="edgeStyle=none;shape=connector;rounded=0;orthogonalLoop=1;jettySize=auto;html=1;strokeColor=default;align=center;verticalAlign=middle;fontFamily=Helvetica;fontSize=11;fontColor=default;labelBackgroundColor=default;startFill=0;endArrow=none;exitX=0.258;exitY=0.031;exitDx=0;exitDy=0;entryX=0.825;entryY=1.008;entryDx=0;entryDy=0;exitPerimeter=0;entryPerimeter=0;" edge="1" parent="1" source="NVN6tV_nm1JGV-YXpk5U-14" target="es9ZJtGhFtUr3s1p5VEL-24">
          <mxGeometry relative="1" as="geometry">
            <mxPoint x="-310" y="660" as="sourcePoint" />
            <mxPoint x="-276" y="696" as="targetPoint" />
          </mxGeometry>
        </mxCell>
        <mxCell id="NVN6tV_nm1JGV-YXpk5U-19" value="departmentName" style="ellipse;whiteSpace=wrap;html=1;align=center;fontStyle=0" vertex="1" parent="1">
          <mxGeometry x="510" y="50" width="100" height="40" as="geometry" />
        </mxCell>
        <mxCell id="NVN6tV_nm1JGV-YXpk5U-21" value="staffNo" style="ellipse;whiteSpace=wrap;html=1;align=center;fontStyle=0" vertex="1" parent="1">
          <mxGeometry x="520" y="5" width="100" height="40" as="geometry" />
        </mxCell>
        <mxCell id="NVN6tV_nm1JGV-YXpk5U-23" value="foundAdNo" style="ellipse;whiteSpace=wrap;html=1;align=center;fontStyle=0" vertex="1" parent="1">
          <mxGeometry x="-90" y="280" width="100" height="40" as="geometry" />
        </mxCell>
        <mxCell id="NVN6tV_nm1JGV-YXpk5U-24" value="" style="endArrow=none;dashed=1;html=1;rounded=0;exitX=0.071;exitY=0.729;exitDx=0;exitDy=0;exitPerimeter=0;entryX=0.952;entryY=0.709;entryDx=0;entryDy=0;entryPerimeter=0;" edge="1" parent="1" source="NVN6tV_nm1JGV-YXpk5U-23" target="NVN6tV_nm1JGV-YXpk5U-23">
          <mxGeometry width="50" height="50" relative="1" as="geometry">
            <mxPoint x="-409" y="90" as="sourcePoint" />
            <mxPoint x="-330" y="89" as="targetPoint" />
          </mxGeometry>
        </mxCell>
        <mxCell id="NVN6tV_nm1JGV-YXpk5U-26" value="lostAdNo" style="ellipse;whiteSpace=wrap;html=1;align=center;fontStyle=0" vertex="1" parent="1">
          <mxGeometry x="570" y="640" width="100" height="40" as="geometry" />
        </mxCell>
        <mxCell id="NVN6tV_nm1JGV-YXpk5U-27" value="" style="endArrow=none;dashed=1;html=1;rounded=0;entryX=0.968;entryY=0.672;entryDx=0;entryDy=0;exitX=0.047;exitY=0.693;exitDx=0;exitDy=0;exitPerimeter=0;entryPerimeter=0;" edge="1" parent="1" source="NVN6tV_nm1JGV-YXpk5U-26" target="NVN6tV_nm1JGV-YXpk5U-26">
          <mxGeometry width="50" height="50" relative="1" as="geometry">
            <mxPoint x="1015.5" y="810" as="sourcePoint" />
            <mxPoint x="1104.5" y="810" as="targetPoint" />
          </mxGeometry>
        </mxCell>
        <mxCell id="NVN6tV_nm1JGV-YXpk5U-28" value="image" style="ellipse;whiteSpace=wrap;html=1;align=center;fontStyle=0" vertex="1" parent="1">
          <mxGeometry x="460" y="790" width="100" height="40" as="geometry" />
        </mxCell>
        <mxCell id="NVN6tV_nm1JGV-YXpk5U-29" value="receives" style="shape=rhombus;double=1;perimeter=rhombusPerimeter;whiteSpace=wrap;html=1;align=center;" vertex="1" parent="1">
          <mxGeometry x="332" y="220" width="116" height="45" as="geometry" />
        </mxCell>
        <mxCell id="NVN6tV_nm1JGV-YXpk5U-30" style="edgeStyle=none;shape=connector;rounded=0;orthogonalLoop=1;jettySize=auto;html=1;strokeColor=default;align=center;verticalAlign=middle;fontFamily=Helvetica;fontSize=11;fontColor=default;labelBackgroundColor=default;startFill=0;endArrow=ERzeroToMany;exitX=0.5;exitY=0;exitDx=0;exitDy=0;entryX=1;entryY=0.75;entryDx=0;entryDy=0;endFill=0;endSize=15;" edge="1" parent="1" source="NVN6tV_nm1JGV-YXpk5U-29" target="PpMCIyciMcYEDyqqtjCE-4">
          <mxGeometry relative="1" as="geometry">
            <mxPoint x="659.5" y="283" as="sourcePoint" />
            <mxPoint x="544.5" y="335" as="targetPoint" />
            <Array as="points">
              <mxPoint x="390" y="190" />
            </Array>
          </mxGeometry>
        </mxCell>
        <mxCell id="NVN6tV_nm1JGV-YXpk5U-31" style="edgeStyle=none;shape=connector;rounded=0;orthogonalLoop=1;jettySize=auto;html=1;strokeColor=default;align=center;verticalAlign=middle;fontFamily=Helvetica;fontSize=11;fontColor=default;labelBackgroundColor=default;startFill=0;endArrow=ERzeroToMany;exitX=0.5;exitY=1;exitDx=0;exitDy=0;entryX=0;entryY=0.5;entryDx=0;entryDy=0;endFill=0;endSize=15;" edge="1" parent="1" source="NVN6tV_nm1JGV-YXpk5U-29" target="es9ZJtGhFtUr3s1p5VEL-23">
          <mxGeometry relative="1" as="geometry">
            <mxPoint x="835" y="398" as="sourcePoint" />
            <mxPoint x="720" y="450" as="targetPoint" />
            <Array as="points">
              <mxPoint x="390" y="320" />
            </Array>
          </mxGeometry>
        </mxCell>
        <mxCell id="PpMCIyciMcYEDyqqtjCE-193" value="Report Category" style="whiteSpace=wrap;html=1;align=center;" parent="1" vertex="1">
          <mxGeometry x="-430" y="-59.99999999999994" width="100" height="40" as="geometry" />
        </mxCell>
        <mxCell id="PpMCIyciMcYEDyqqtjCE-196" style="edgeStyle=none;shape=connector;rounded=0;orthogonalLoop=1;jettySize=auto;html=1;strokeColor=default;align=center;verticalAlign=middle;fontFamily=Helvetica;fontSize=11;fontColor=default;labelBackgroundColor=default;startFill=0;endArrow=none;" parent="1" source="PpMCIyciMcYEDyqqtjCE-194" target="PpMCIyciMcYEDyqqtjCE-193" edge="1">
          <mxGeometry relative="1" as="geometry" />
        </mxCell>
        <mxCell id="PpMCIyciMcYEDyqqtjCE-194" value="reportCategoryId" style="ellipse;whiteSpace=wrap;html=1;align=center;fontStyle=0" parent="1" vertex="1">
          <mxGeometry x="-360" y="-110" width="100" height="40" as="geometry" />
        </mxCell>
        <mxCell id="PpMCIyciMcYEDyqqtjCE-197" style="edgeStyle=none;shape=connector;rounded=0;orthogonalLoop=1;jettySize=auto;html=1;strokeColor=default;align=center;verticalAlign=middle;fontFamily=Helvetica;fontSize=11;fontColor=default;labelBackgroundColor=default;startFill=0;endArrow=none;" parent="1" source="PpMCIyciMcYEDyqqtjCE-195" target="PpMCIyciMcYEDyqqtjCE-193" edge="1">
          <mxGeometry relative="1" as="geometry" />
        </mxCell>
        <mxCell id="PpMCIyciMcYEDyqqtjCE-195" value="&lt;font style=&quot;font-size: 10px;&quot;&gt;reportCategoryName&lt;/font&gt;" style="ellipse;whiteSpace=wrap;html=1;align=center;fontStyle=0" parent="1" vertex="1">
          <mxGeometry x="-480" y="-110" width="100" height="40" as="geometry" />
        </mxCell>
        <mxCell id="PpMCIyciMcYEDyqqtjCE-187" value="reporterId" style="ellipse;whiteSpace=wrap;html=1;align=center;fontStyle=0" parent="1" vertex="1">
          <mxGeometry x="-220" y="-40" width="100" height="40" as="geometry" />
        </mxCell>
        <mxCell id="PpMCIyciMcYEDyqqtjCE-188" value="reportedId" style="ellipse;whiteSpace=wrap;html=1;align=center;fontStyle=0" parent="1" vertex="1">
          <mxGeometry x="-180" y="-90" width="100" height="40" as="geometry" />
        </mxCell>
        <mxCell id="PpMCIyciMcYEDyqqtjCE-189" value="reportId" style="ellipse;whiteSpace=wrap;html=1;align=center;fontStyle=4" parent="1" vertex="1">
          <mxGeometry x="-240" y="70" width="100" height="40" as="geometry" />
        </mxCell>
        <mxCell id="PpMCIyciMcYEDyqqtjCE-190" value="reportMessage" style="ellipse;whiteSpace=wrap;html=1;align=center;fontStyle=0" parent="1" vertex="1">
          <mxGeometry x="-40" y="-60" width="100" height="40" as="geometry" />
        </mxCell>
        <mxCell id="PpMCIyciMcYEDyqqtjCE-192" value="reportCategoryId" style="ellipse;whiteSpace=wrap;html=1;align=center;fontStyle=0" parent="1" vertex="1">
          <mxGeometry x="-80" y="-105" width="100" height="40" as="geometry" />
        </mxCell>
        <mxCell id="es9ZJtGhFtUr3s1p5VEL-18" value="User Report" style="shape=ext;margin=3;double=1;whiteSpace=wrap;html=1;align=center;" parent="1" vertex="1">
          <mxGeometry x="-130" y="35" width="100" height="40" as="geometry" />
        </mxCell>
        <mxCell id="PpMCIyciMcYEDyqqtjCE-200" style="edgeStyle=none;shape=connector;rounded=0;orthogonalLoop=1;jettySize=auto;html=1;strokeColor=default;align=center;verticalAlign=middle;fontFamily=Helvetica;fontSize=11;fontColor=default;labelBackgroundColor=default;startFill=0;endArrow=none;" parent="1" source="es9ZJtGhFtUr3s1p5VEL-18" target="PpMCIyciMcYEDyqqtjCE-187" edge="1">
          <mxGeometry relative="1" as="geometry" />
        </mxCell>
        <mxCell id="PpMCIyciMcYEDyqqtjCE-201" style="edgeStyle=none;shape=connector;rounded=0;orthogonalLoop=1;jettySize=auto;html=1;strokeColor=default;align=center;verticalAlign=middle;fontFamily=Helvetica;fontSize=11;fontColor=default;labelBackgroundColor=default;startFill=0;endArrow=none;" parent="1" source="es9ZJtGhFtUr3s1p5VEL-18" target="PpMCIyciMcYEDyqqtjCE-188" edge="1">
          <mxGeometry relative="1" as="geometry" />
        </mxCell>
        <mxCell id="PpMCIyciMcYEDyqqtjCE-199" style="edgeStyle=none;shape=connector;rounded=0;orthogonalLoop=1;jettySize=auto;html=1;strokeColor=default;align=center;verticalAlign=middle;fontFamily=Helvetica;fontSize=11;fontColor=default;labelBackgroundColor=default;startFill=0;endArrow=none;" parent="1" source="es9ZJtGhFtUr3s1p5VEL-18" target="PpMCIyciMcYEDyqqtjCE-189" edge="1">
          <mxGeometry relative="1" as="geometry" />
        </mxCell>
        <mxCell id="PpMCIyciMcYEDyqqtjCE-202" style="edgeStyle=none;shape=connector;rounded=0;orthogonalLoop=1;jettySize=auto;html=1;strokeColor=default;align=center;verticalAlign=middle;fontFamily=Helvetica;fontSize=11;fontColor=default;labelBackgroundColor=default;startFill=0;endArrow=none;" parent="1" source="es9ZJtGhFtUr3s1p5VEL-18" target="PpMCIyciMcYEDyqqtjCE-190" edge="1">
          <mxGeometry relative="1" as="geometry" />
        </mxCell>
        <mxCell id="PpMCIyciMcYEDyqqtjCE-198" style="edgeStyle=none;shape=connector;rounded=0;orthogonalLoop=1;jettySize=auto;html=1;strokeColor=default;align=center;verticalAlign=middle;fontFamily=Helvetica;fontSize=11;fontColor=default;labelBackgroundColor=default;startFill=0;endArrow=none;" parent="1" source="es9ZJtGhFtUr3s1p5VEL-18" target="PpMCIyciMcYEDyqqtjCE-192" edge="1">
          <mxGeometry relative="1" as="geometry" />
        </mxCell>
        <mxCell id="es9ZJtGhFtUr3s1p5VEL-76" value="includes" style="shape=rhombus;double=1;perimeter=rhombusPerimeter;whiteSpace=wrap;html=1;align=center;" parent="1" vertex="1">
          <mxGeometry x="-320" y="-15" width="100" height="50" as="geometry" />
        </mxCell>
        <mxCell id="es9ZJtGhFtUr3s1p5VEL-90" value="" style="edgeStyle=none;shape=connector;rounded=0;orthogonalLoop=1;jettySize=auto;html=1;strokeColor=default;align=center;verticalAlign=middle;fontFamily=Helvetica;fontSize=11;fontColor=default;labelBackgroundColor=default;startFill=0;endArrow=ERoneToMany;endFill=0;endSize=15;startSize=15;" parent="1" source="es9ZJtGhFtUr3s1p5VEL-76" target="PpMCIyciMcYEDyqqtjCE-193" edge="1">
          <mxGeometry relative="1" as="geometry">
            <mxPoint x="-470" y="-150" as="sourcePoint" />
            <mxPoint x="-427.5" y="-90" as="targetPoint" />
            <Array as="points">
              <mxPoint x="-300" y="-40" />
            </Array>
          </mxGeometry>
        </mxCell>
        <mxCell id="es9ZJtGhFtUr3s1p5VEL-91" value="" style="edgeStyle=none;shape=connector;rounded=0;orthogonalLoop=1;jettySize=auto;html=1;strokeColor=default;align=center;verticalAlign=middle;fontFamily=Helvetica;fontSize=11;fontColor=default;labelBackgroundColor=default;startFill=0;endArrow=ERoneToMany;endFill=0;endSize=15;startSize=15;" parent="1" source="es9ZJtGhFtUr3s1p5VEL-76" target="es9ZJtGhFtUr3s1p5VEL-18" edge="1">
          <mxGeometry relative="1" as="geometry">
            <mxPoint x="-411.25" y="-140" as="sourcePoint" />
            <mxPoint x="-368.75" y="-80" as="targetPoint" />
            <Array as="points">
              <mxPoint x="-190" y="55" />
            </Array>
          </mxGeometry>
        </mxCell>
      </root>
    </mxGraphModel>
  </diagram>
</mxfile>
